<svg width="315" height="65" xmlns="http://www.w3.org/2000/svg">
  <g stroke="#383838" stroke-width="2" fill="none" fill-rule="evenodd" stroke-linecap="round">
    <path d="M1.1 24.7L13 60.5M9.7 22.9l14.1 38.3M21.2 20.6c3 24.8.1 12.4 8.8 37.3M34.2 20.2L35.9 60M45 20.1c.2 25.2.7 11-3 42.9M56.4 16.3C52 50.7 53 35 52.6 63.3M62.5 27.1c-3.6 24.8-4.1 15-2.5 29.4M68.2 28.2l.4 23.1M81.7 16.8c-8.8 26-5.8 12.7-9 40M84.7 25.9c-1.3 27.8 2 17.7-3.7 31.7M94.8 23l-4 32M94 56.6c12.8-30.8 3.8-21.5 19.2-34M107.4 50l10.4-39M112 52.2c9.9-21.1 5-8.7 12.9-37.8M123.5 45c10.8-21.3 6.3-10 13.3-34M141.7 13.7c-1.7 26.3.7 15.2-4.8 33.6"/>
    <path d="M162.3 15.3c-9.8 7-14.1 8.8-21 20.6-8.5 14-5.5 11.9-.4 9.7M164.5 16.8c-5.2 7-20.5 24-16.8 33.3.2.6 1.1-.3 1.7-.5M173.3 8.9c.8 15-4.2 27.1-12.2 39.4M182.7 1.9a78.2 78.2 0 01-9.8 39.7M175.8 43.7c10.7-14.4 4.7-5.4 16.3-28.2M189 41.2c10.3-18 15.6-20.3 13.1-37.4M202.8 3.4c6 28 5 14.8 4.4 39.2"/>
    <path d="M217 18.2c-7.6 6-15.7 11.3-22.9 17.8-1.5 1.4-3.2 3.5-2.7 5.5.3 1.4 2.7.4 4.1.6M226.6 5.4c-17.3 45.8-.4 8.6-18.6 36.4-.6 1 2-1.3 3-2M232.2 15.8c-10.7 22.8-4.9 14.5-14.5 26.6M240.9 17.5c-8.8 17.8-3.5 9.4-16 25.3M251.5 11C248.9 25.5 241 35 232 46.4M258 21.3c-3.7 5.5-11.8 19.7-18.3 25.7-1 .8 1.2-2.2 1.8-3.3M264.5 20.6c.3 13.8-1.5 18-13.1 25.5M272 25.9c0 11.8 1.3 5.8-5.2 17.8M282.6 25.6l-10.6 18M282.8 23.3c4.6 14.7 3.2 6.3 1.9 25.5M294.2 27.2c1 6.7-4.9 34.4-4 21M297.3 31.8c6.6 4.2 2.5.6 0 16.3M305.4 33.9c.9 10 1 4-2.2 17.6M307.5 45.4c.4 7.7.7 3.3-2.2 13.2M313.6 49.3l-2.8 7.3"/>
  </g>
</svg>
