<svg width="299" height="74" xmlns="http://www.w3.org/2000/svg">
  <g stroke="#363636" stroke-width="2" fill="none" fill-rule="evenodd" stroke-linecap="round">
    <path d="M283.2 1.5c7.4 14.6 8 21.5 3.3 37.2M281.2 3.7c.1.5 11.4 32.9 2.8 36.8-.5.3-.2-1.1-.3-1.7M297 3c.6 29.6 3.7 16.6-6.4 39.5M271.8 12c7.2 13.3 15.5 20.5 12.5 34.3M261.4 11c5 7.4 14.1 22.8 10.3 32.4-.3.8-.6-1.4-.9-2.2M252 2.6C263.8 20.9 269 24.7 269.7 44M244.5 8.9c10.2 11.5 20.9 21.6 19.1 37.7M233 3.2c25.7 33 22.5 17.1 23.7 42.4M226.1 5.2c13.3 23 10 13.1 15.7 37.2.1.5.7 1.6.1 1.6-.7 0-1-1-1.5-1.5M212.3 3.8c9.2 10.4 24.3 33.9 21.5 49.7-.1.6-.6-1-.9-1.5M205.4 9.4c4.8 7.6 10.3 14.8 14.5 22.8 2.5 4.7 6 15 4.3 21.1-.3 1.2-1-2-1.4-3.1M199.3 15.7c12.6 24.4 9.6 13 12.4 32.9M190.5 17c7.6 16.6 10.4 19.4 12.8 37.5.2 1.6-1.6-2.8-2.4-4.2M176.7 18.7c4.7 5.8 10.3 11.1 14.2 17.6 1.8 3 2 6.8 2.8 10.3.3 1.3 1 2.7.5 4-.2.6-.8-1.3-1.2-1.9M171.9 24c15.9 21.5 12.6 11.9 16.3 25.6M162 14.9c14.5 20.6 9.7 9.6 15.2 32.7M158.4 23.1c15.2 19.7 11 10.3 16.3 26.3M148.7 26.7c14.4 14.7 8.4 6.7 18.2 23.9M142.4 21.1c10.8 20.5 7.9 11.8 11.5 25.3M133.3 18.2c11 16.3 6.5 7.6 13.4 26.3M115.3 14.5c12.7 9.9 15.8 17.4 22 32.8M109.6 21.7c10.6 16.6 8 9.4 11.1 20.1M116.2 24c9.4 16.1 7 8.2 9.3 23.2M104.3 29c11.6 17.3 8 9.3 12.8 22.9M95.8 30.1c17.2 22.3 13.6 12.1 17.5 27.2M87.4 33.3c12.8 12.7 5.5 4.8 20.7 24.9M84.3 37.2L96.5 60M73.7 34.8c11 17.1 6.8 8.4 13.1 26M67.5 40.8c12.1 15.5 9 8.7 12.9 18.5M53.6 39.8c8 8.1 13.5 15.1 15 26.6M52.8 44.9c8.4 15 5 7 9.8 23.6M40.4 40.9c12.7 22 9.2 11.9 13.4 29.1M31.2 48.6c12.6 18.3 9.2 9.9 13.3 23.7M26.3 53c10 14.1 7.4 7.9 10.7 17.3M21.5 55.8c8 11.9 5.7 6.3 8.7 15.9M8.1 59.3c9 6.4 5.5 2.1 9.7 13.3M1.6 61.2c8.6 8.6 6.7 4.3 8.8 11.1M17.3 59.4c7 9.6 5.7 13 7.1 8.1M176.1 13.3c13.2 20.4 7.9 10.1 16.6 30.7M225.2 9.9c11.4 8.5 25 22 24.7 37.6"/>
  </g>
</svg>
