<svg width="454" height="102" xmlns="http://www.w3.org/2000/svg" xmlns:xlink="http://www.w3.org/1999/xlink">
  <defs>
    <filter x="-3.8%" y="-27.3%" width="107.7%" height="154.5%" filterUnits="objectBoundingBox" id="a">
      <feOffset dy="2" in="SourceAlpha" result="shadowOffsetOuter1"/>
      <feGaussianBlur stdDeviation="2" in="shadowOffsetOuter1" result="shadowBlurOuter1"/>
      <feColorMatrix values="0 0 0 0 0 0 0 0 0 0 0 0 0 0 0 0 0 0 0.5 0" in="shadowBlurOuter1" result="shadowMatrixOuter1"/>
      <feMerge>
        <feMergeNode in="shadowMatrixOuter1"/>
        <feMergeNode in="SourceGraphic"/>
      </feMerge>
    </filter>
    <filter x="-2.2%" y="-9.8%" width="104.4%" height="119.7%" filterUnits="objectBoundingBox" id="c">
      <feGaussianBlur stdDeviation="9.5" in="SourceAlpha" result="shadowBlurInner1"/>
      <feOffset dy="1" in="shadowBlurInner1" result="shadowOffsetInner1"/>
      <feComposite in="shadowOffsetInner1" in2="SourceAlpha" operator="arithmetic" k2="-1" k3="1" result="shadowInnerInner1"/>
      <feColorMatrix values="0 0 0 0 0 0 0 0 0 0 0 0 0 0 0 0 0 0 0.5 0" in="shadowInnerInner1"/>
    </filter>
    <path d="M128.4 35.7c48 15.4 20.2 5 68.6 8.8 24 2 29 5.8 37.8 7.7 5.7 1.3 21-6.3 36.1-7.7 1 0 31 7 51.5 8 7 .3 108.7-30 116.1-23.4 19.3 17 16.2-7.9 9.5 15.4-3.1 11-22.3 10.2-26.1 14.8-30.1 36-35.2 7-75.2 31.6-6.6 4-48 11.9-83.7 10.7-35.6-1.2-77.6 1.2-89.3 0-31-3-66.4-25.2-91.7-42.3-51.2-35-86.9 14-80.6-39.3C5.4-14 13 3.2 51 16.6A865 865 0 0092.7 29c8-.6 20 1.6 35.7 6.6zm-51.5-.9c-11 .7-19.5-.4-25.8-3.5C27 19.6 8.6 5.4 13.4 21.3c5.9 19.3 26 16 37.7 21 21.6 9 39 15.6 58.2 27.2 4.7 2.8 33.7-2.6 51.3 4.7C203 92 237 91.2 286.9 79.5c34.5-8 51.3 9.4 78.5-10 28.3-20.2 47 0 74.3-22.4 9.4-7.7-16 0-36.5 0-32.5 0-64 11.8-85.4 14.4-79.4 10-53.9 7.8-59.1 8-2.8.1-10-6.6-50.4 0-21.1 3.4-30.6-5.2-36.5-8-10.5-5-12.2-4.3-46.2-14.4-28.4-8.6-21.3 0-48.7-12.3z" id="b"/>
  </defs>
  <g fill="none" fill-rule="evenodd">
    <path d="M37.1 21c19-5.7 40.5 10.3 56 13.4 36.6 7.4 62 16.4 105.5 26 47 10.4 33 3.1 80.4-6.4 29.3-5.9 6.6 12.4 53.1 0 27.7-7.4 74.3-25 90.8-15.1 13 7.7 27.5-9.4 24.8 0-3.3 11.5-16 13-24.8 16.6-20.1 8-44.7 8.1-67.8 27.9-23.7 20.3-61.5-.2-87.2 12-28.8 13.9-52.2-.3-69.3 0-27 .8-44 7.1-85.9-16.8-15.2-8.7-26.3-13-37.6-23C49 32.1 46.4 57 23.5 38.8c-15-12-28.5-29.3 0-29.3l13.6 11.3z" fill="#151515"/>
    <g filter="url(#a)" transform="rotate(-2 1227.7 -2845.1)">
      <path fill="#FFF" d="M86.8 23.3h22.8l4.3 19h-31zM125.4 24.7h23.1l4.3 19h-31z"/>
      <path d="M165.4 19.6l-3.7 18h31.7l-5-18h-23z" stroke="#979797" fill="#FFE342"/>
      <path fill="#FFF" d="M207 19.5h22.9l4.2 19h-30zM247.5 15h23.1l4.7 19h-31zM285.8 12.3h22.6l4 19h-31zM47.7 10h22.6l5 19h-31zM5.1.5H28l3.7 19H.6z"/>
    </g>
    <use fill="#DB574A" xlink:href="#b"/>
    <use fill="#000" filter="url(#c)" xlink:href="#b"/>
  </g>
</svg>
