<svg width="505" height="296" xmlns="http://www.w3.org/2000/svg" xmlns:xlink="http://www.w3.org/1999/xlink">
  <defs>
    <filter x="-3.1%" y="-11.9%" width="106.2%" height="123.8%" filterUnits="objectBoundingBox" id="a">
      <feOffset dy="2" in="SourceAlpha" result="shadowOffsetOuter1"/>
      <feGaussianBlur stdDeviation="2" in="shadowOffsetOuter1" result="shadowBlurOuter1"/>
      <feColorMatrix values="0 0 0 0 0 0 0 0 0 0 0 0 0 0 0 0 0 0 0.5 0" in="shadowBlurOuter1" result="shadowMatrixOuter1"/>
      <feMerge>
        <feMergeNode in="shadowMatrixOuter1"/>
        <feMergeNode in="SourceGraphic"/>
      </feMerge>
    </filter>
    <filter x="-2%" y="-3.4%" width="104%" height="106.8%" filterUnits="objectBoundingBox" id="c">
      <feGaussianBlur stdDeviation="9.5" in="SourceAlpha" result="shadowBlurInner1"/>
      <feOffset dy="1" in="shadowBlurInner1" result="shadowOffsetInner1"/>
      <feComposite in="shadowOffsetInner1" in2="SourceAlpha" operator="arithmetic" k2="-1" k3="1" result="shadowInnerInner1"/>
      <feColorMatrix values="0 0 0 0 0 0 0 0 0 0 0 0 0 0 0 0 0 0 0.5 0" in="shadowInnerInner1"/>
    </filter>
    <path d="M82.7 2.5c48 15.4 116 56.7 164.4 60.6 39.5 3 72-18 110.8-21.7 21.5-2 43.2-1 64.8 0 7 .4 55.3 10.1 62.8 16.7 19.3 17 23 53.9 16.3 77.1-3.1 11-20.8 31-24.6 35.5-30 36-63 67.2-102.9 91.8-6.6 4-14.3 5.8-21 9.8-4.8 3-8.1 8.2-13.2 10.7a422 422 0 01-42.3 12.1c-2.9.4-5.6-1.7-8.4-1.8-11.7-.8-23.5.2-35.2-1-31-3-63-22.7-88.2-39.9C114.7 217.5 63.3 172.6 29.6 120c-19-29.7-50-81.1-9.4-107.6C34.1 3.3 40 4 57 .1l25.7 2.4zm17.6 37l-20.7-8.3c-10.5-4.8-64.3-8.2-56.7 19 15.4 55.4 13 37.2 45.1 75.1 11.2 13.2 20.3 28 31.3 41.4 22 26.5 13.8 13 43.5 30.9 4.7 2.8 48.5 29.7 66 37 42.5 17.7 85.6 26.2 135.6 14.6 34.5-8.1 59.6-27.3 86.8-46.7 28.3-20.3 51.6-40.4 59.5-75.8 2-8.8 5-25.1 1.3-34-12-29.9-85.7-20.5-107-17.8-121 15 61.6-3.8-104.3 9.4-62.1 5-55.7 6.4-108.7-9.4-28.4-8.5-49.7-14.2-71.7-35.4z" id="b"/>
  </defs>
  <g fill="none" fill-rule="evenodd">
    <path d="M22.8 28c64-19.2 113 40.8 174.8 54.5 47 10.3 103-2 150.4-11.5 46.6-9.3 93.7-21.3 138 5 13 7.7 10.4 50.5 7.7 59.9-10.9 37.5-22.5 36.2-55.8 64.8-23.7 20.3-31.1 22.8-56.8 35-74.4 35.6-162.4 15.6-230.7-23.5-15.3-8.7-50.2-39.2-61.5-49.3-26-23.4-41-47.3-55.4-77.9C17 50.2 27 71 22.8 46V28z" fill="#151515"/>
    <g fill="#FFF">
      <path d="M278 225l18.4-3-.4 37h-18zM248 222l17-5v37h-18zM209.9 213l24.1 4v33h-18zM179 208h12.3l5.7 37h-18zM309 222h13.8l4.2 37h-18zM335.8 222H358v37h-18zM369 222l20-5v42h-18z"/>
    </g>
    <g filter="url(#a)" transform="translate(60 23)">
      <path fill="#FFF" d="M162 62h22l4 39h-29.7zM201 62h22l4.1 39h-29.5z"/>
      <path d="M240.5 56.5l-3.6 38h29.5l-4.8-38h-21.1z" stroke="#979797" fill="#FFE342"/>
      <path fill="#FFF" d="M283 54h22l4 39h-28.8zM322 48h22l4.4 39h-29.5zM361 43h22l3.9 39h-30.2zM123 53h22l4.9 39h-30.2zM80 39h22l3.6 39h-30zM45 20h22l3.3 42H42zM6 0h22v39H.7z"/>
    </g>
    <use fill="#DB574A" xlink:href="#b"/>
    <use fill="#000" filter="url(#c)" xlink:href="#b"/>
  </g>
</svg>
