<?xml version="1.0" encoding="UTF-8"?>
<svg width="58px" height="60px" viewBox="0 0 58 60" version="1.1" xmlns="http://www.w3.org/2000/svg" xmlns:xlink="http://www.w3.org/1999/xlink">
    <!-- Generator: Sketch 52.6 (67491) - http://www.bohemiancoding.com/sketch -->
    <title>Group</title>
    <desc>Created with Sketch.</desc>
    <g id="Page-1" stroke="none" stroke-width="1" fill="none" fill-rule="evenodd">
        <g id="Group">
            <rect id="Rectangle" fill="#F6F2F0" x="0" y="0" width="58" height="60"></rect>
            <path d="M22,58 C33.045695,55.5425284 40.4973319,47.4595414 40.4973319,36.137704 C40.4973319,24.8158667 31.8267299,18.9444711 22,17 C12.1732701,15.0555289 3.94524275,24.8158667 3.94524275,36.137704 C3.94524275,47.4595414 10.954305,60.4574716 22,58 Z" id="Oval" fill="#4587E5"></path>
            <path d="M21.5756574,48.0368129 C26.8223626,48.0368129 28.546208,43.5228475 30,38 C31.453792,32.4771525 25.861734,26.9669713 20.6150288,26.9669713 C15.3683237,26.9669713 11.59038,30.7982497 11.59038,36.3210972 C11.59038,41.8439447 16.3289523,48.0368129 21.5756574,48.0368129 Z" id="Oval" fill="#000000"></path>
            <ellipse id="Oval" fill="#FFFFFF" cx="20.5" cy="36" rx="2.5" ry="3"></ellipse>
        </g>
    </g>
</svg>