<?xml version="1.0" encoding="UTF-8"?>
<svg width="58px" height="60px" viewBox="0 0 58 60" version="1.1" xmlns="http://www.w3.org/2000/svg" xmlns:xlink="http://www.w3.org/1999/xlink">
    <!-- Generator: Sketch 52.6 (67491) - http://www.bohemiancoding.com/sketch -->
    <title>Group</title>
    <desc>Created with Sketch.</desc>
    <g id="Page-1" stroke="none" stroke-width="1" fill="none" fill-rule="evenodd">
        <g id="Group">
            <rect id="Rectangle" fill="#F6F2F0" x="0" y="0" width="58" height="60"></rect>
            <path d="M38.0547573,58.2484217 C49.1004523,55.7909501 56.5520891,44.5445469 56.5520891,36.3861257 C56.5520891,28.2277045 47.8814872,19.1928928 38.0547573,17.2484217 C28.2280273,15.3039506 21.8596933,28.2277045 20,36.3861257 C18.1403067,44.5445469 27.0090623,60.7058932 38.0547573,58.2484217 Z" id="Oval" fill="#4587E5"></path>
            <path d="M41.9852774,51.0698417 C47.2319826,51.0698417 50.40962,47.153656 50.40962,41.0330287 C50.40962,34.9124015 46.271354,30 41.0246489,30 C35.7779437,30 32,33.8312785 32,39.354126 C32,44.8769735 36.7385723,51.0698417 41.9852774,51.0698417 Z" id="Oval" fill="#000000"></path>
            <ellipse id="Oval" fill="#FFFFFF" cx="42.5" cy="42" rx="2.5" ry="3"></ellipse>
        </g>
    </g>
</svg>