<?xml version="1.0" encoding="UTF-8"?>
<svg width="473px" height="224px" viewBox="0 0 473 224" version="1.1" xmlns="http://www.w3.org/2000/svg" xmlns:xlink="http://www.w3.org/1999/xlink">
    <!-- Generator: Sketch 52.6 (67491) - http://www.bohemiancoding.com/sketch -->
    <title>Untitled</title>
    <desc>Created with Sketch.</desc>
    <g id="Page-1" stroke="none" stroke-width="1" fill="none" fill-rule="evenodd">
        <g id="smile">
            <path d="M24.1853345,17.4 C42.644246,11.8911686 60.2593346,26.646995 73.7753976,31.4765905 C107.121688,43.3919753 128.695544,63.8225187 172.6,73.5 C219.6,83.8 275.6,71.5 323,62 C352.3,56.1 387.44366,49.9722353 433.94366,37.5722353 C461.54366,30.1722353 448.143196,48.4195714 464.743196,58.2195714 C477.643196,65.9195714 436.64366,101.947148 433.94366,111.347148 C423.04366,148.847148 427.842871,126.448564 394.542871,155.048564 C370.842871,175.348564 348.7,185.83321 323,198.03321 C248.6,233.63321 212.439468,223.656676 144.139468,184.556676 C128.839468,175.856676 90.0464531,156.108597 78.7464531,146.008597 C52.7464531,122.608597 53.5715147,128.71973 39.2715147,98.2197301 C22.7715147,63.3197301 19.8099313,83.2195714 15.5099313,58.2195714 L15.5099313,37.5722353 L24.1853345,17.4 Z" id="Path" fill="#151515"></path>
            <g id="Group" transform="translate(229.880545, 53.731734) rotate(-2.000000) translate(-229.880545, -53.731734) translate(36.880545, 6.731734)">
                <path d="M160.8,58 L182.9,58 L187,94 L157,94 L160.8,58 Z M199.4,58 L221.8,58 L226,94 L196,94 L199.4,58 Z" id="Shape" fill="#FFFFFF" fill-rule="nonzero"></path>
                <polygon id="Path" stroke="#979797" fill="#FFE342" points="239.1 53.5 235.6 88.5 265.4 88.5 260.5 53.5"></polygon>
                <path d="M281.8,51 L304,51 L308.1,87 L279.1,87 L281.8,51 Z M321.2,44 L343.5,44 L348,80 L318,80 L321.2,44 Z M360.3,40 L382.2,40 L386,76 L356,76 L360.3,40 Z M122.3,50 L144,50 L148.9,86 L118.9,86 L122.3,50 Z M79.4,37 L101.4,37 L105,73 L75,73 L79.4,37 Z M43.9,19 L65.8,19 L69,58 L41,58 L43.9,19 Z M5.2,0 L27,0 L27,36 L0,36 L5.2,0 Z" id="Shape" fill="#FFFFFF" fill-rule="nonzero"></path>
            </g>
            <g id="b-link" transform="translate(0.000000, 6.000000)" fill="#DB574A" fill-rule="nonzero">
                <path d="M111.603432,39.3241391 C159.603432,54.7241391 173.7,44.2 222.1,48.1 C261.6,51.1 294.3,43.5 333,39.9 C354.5,37.9 376.1,25.4 397.7,26.4 C404.7,26.8 457.292628,27.4003949 464.792628,34.0003949 C483.992628,51.0003949 464.228006,61.50252 457.628006,84.70252 C454.428006,95.70252 441.324427,109.584341 437.524427,114.084341 C407.524427,150.084341 432.536953,141.584239 392.536953,166.084239 C385.936953,170.084239 361.2997,184.817008 354.6997,188.817008 C349.7997,191.717008 331.290085,199.5 326.190085,202 C323.890085,203 308.6,216.2 302,216.9 C300.6,217.1 274.181441,217 272.681441,216.9 C260.981441,216.2 251.6,218.1 240,216.9 C209,213.9 192.774696,215.2 167.474696,198 C116.274696,163.1 75.8540472,166.784341 42.1540472,114.084341 C23.1540472,84.3843414 -24.7246845,32.9536812 16.0753155,6.55368118 C30.0753155,-2.44631882 18.3578388,3.9 35.3578388,0 L51.7655783,11.7281773 L111.603432,39.3241391 Z M76.9959532,34.0003949 L54.6,24.5 C44.1,19.7 17.0549432,6.70039495 24.6549432,34.0003949 C40.0549432,89.4003949 22.5,63.4387053 54.6,101.438705 C65.7,114.638705 80.9078554,119.2412 91.9078554,132.5412 C113.907855,159.0412 101.132857,145.332602 130.832857,163.232602 C135.532857,166.032602 169.56849,181.325457 187.16849,188.625457 C229.56849,206.325457 247.543953,200.325457 297.543953,188.625457 C332.043953,180.625457 343.133305,175.242443 370.333305,155.842443 C398.633305,135.542443 411.618709,117.324666 432.256776,89.2940286 C438.427686,80.9126948 458.348563,61.1689739 454.748563,52.2689739 C442.648563,22.4689739 382.941766,59.104944 364,64.0297562 C257,91.8494906 363.745149,65.4447077 246.480184,84.70252 C187.16849,94.4429695 198.817083,79.8297562 145.817083,64.0297562 C117.417083,55.5297562 98.9959532,55.2003949 76.9959532,34.0003949 Z" id="b"></path>
            </g>
        </g>
    </g>
</svg>