<svg width="612" height="298" xmlns="http://www.w3.org/2000/svg" xmlns:xlink="http://www.w3.org/1999/xlink">
  <defs>
    <filter x="-3.1%" y="-12.8%" width="106.2%" height="125.5%" filterUnits="objectBoundingBox" id="a">
      <feOffset dy="2" in="SourceAlpha" result="shadowOffsetOuter1"/>
      <feGaussianBlur stdDeviation="2" in="shadowOffsetOuter1" result="shadowBlurOuter1"/>
      <feColorMatrix values="0 0 0 0 0 0 0 0 0 0 0 0 0 0 0 0 0 0 0.5 0" in="shadowBlurOuter1" result="shadowMatrixOuter1"/>
      <feMerge>
        <feMergeNode in="shadowMatrixOuter1"/>
        <feMergeNode in="SourceGraphic"/>
      </feMerge>
    </filter>
    <filter x="-1.6%" y="-3.4%" width="103.3%" height="106.7%" filterUnits="objectBoundingBox" id="c">
      <feGaussianBlur stdDeviation="9.5" in="SourceAlpha" result="shadowBlurInner1"/>
      <feOffset dy="1" in="shadowBlurInner1" result="shadowOffsetInner1"/>
      <feComposite in="shadowOffsetInner1" in2="SourceAlpha" operator="arithmetic" k2="-1" k3="1" result="shadowInnerInner1"/>
      <feColorMatrix values="0 0 0 0 0 0 0 0 0 0 0 0 0 0 0 0 0 0 0.5 0" in="shadowInnerInner1"/>
    </filter>
    <path d="M142 41.8c48 15.4 116.7 42.4 165.1 46.3 39.5 3 72.2-4.6 110.9-8.2 21.5-2 43.1-14.5 64.7-13.5 7 .4 117.7-31.2 125.2-24.6 19.2 17-39.4 95.2-46 118.4-3.2 11-20.9 31-24.7 35.5-30 36-35 36.7-75 61.2-6.6 4-37.6 26.6-44.2 30.6-4.9 2.9-12.7 3.3-17.8 5.8-2.3 1-24.6 3.3-31.2 4-1.4.2-17.2.1-18.7 0-11.7-.7-17 1.2-28.6 0-31-3-61.5-17-86.8-34.2-51.2-34.9-111.6-65.5-145.3-118.2C70.6 115.2-31 28.2 9.8 1.8c14-9 86.8 34 103.8 30.1l28.5 9.9zm18.3 22.7l-20.7-8.3C129.1 51.4-.3-11.8 7.3 15.5 22.7 70.9 94.5 111 126.6 149c11.1 13.2 24.5 21 35.5 34.3 22 26.5 16.3 14.7 46 32.6 4.7 2.8 52.6 18.8 70.2 26.1 42.4 17.7 67.5 24.3 117.5 12.6 34.5-8 53.7-19.3 80.9-38.7 28.3-20.3 62.7-37.5 70.6-72.9 2-8.8 62.8-77.9 59.2-86.8-12.1-29.8-140.2 41-161.5 43.7-121 15-16 0-133.5 19-58.9 9.7-26.5-3.2-79.5-19-28.4-8.5-49.7-14.2-71.7-35.4z" id="b"/>
  </defs>
  <g fill="none" fill-rule="evenodd">
    <path d="M3.2 9.9c64-19.1 192.7 84 254.4 97.6 47 10.3 103-2 150.4-11.5 29.3-5.9 83.3-27.2 129.8-39.6 27.6-7.4 52-14.8 68.6-5 12.9 7.7-50 100.1-52.7 109.5-10.9 37.5-22.5 36.2-55.8 64.8-23.7 20.3-31.1 22.8-56.8 35-74.4 35.6-162.4 15.6-230.7-23.5-15.3-8.7-50.2-39.2-61.5-49.3-26-23.4-48.7-33.5-63-64C69.4 89 30.3 86.6 26 61.6L3.2 10z" fill="#151515"/>
    <g fill="#FFF">
      <path d="M338 250l18.4-3-.4 37h-18zM308 247l17-5v37h-18zM269.9 238l24.1 4v33h-18zM239 233h12.3l5.7 37h-18zM369 247h13.8l4.2 37h-18zM395.8 247H418v37h-18zM429 247l20-5v42h-18z"/>
    </g>
    <g  filter="url(#a)" transform="rotate(-2 1420.7 -3423.9)">
      <path fill="#FFF" d="M160.8 58h22.1l4.1 36h-30zM199.4 58h22.4l4.2 36h-30z"/>
      <path d="M239.1 53.5l-3.5 35h29.8l-4.9-35h-21.4z" stroke="#979797" fill="#FFE342"/>
      <path fill="#FFF" d="M281.8 51H304l4.1 36h-29zM321.2 44h22.3l4.5 36h-30zM360.3 40h21.9l3.8 36h-30zM122.3 50H144l4.9 36h-30zM79.4 37h22l3.6 36H75zM43.9 19h21.9L69 58H41zM5.2 0H27v36H0z"/>
    </g>
    <use fill="#DB574A" xlink:href="#b"/>
    <use fill="#000" filter="url(#c)" xlink:href="#b"/>
  </g>
</svg>
