<svg width="46" height="320" xmlns="http://www.w3.org/2000/svg">
  <g fill="none" fill-rule="evenodd">
    <path d="M23 0c8.5 89.2 13.6 148.8 15.5 178.8 1.7 26.4 5.3 47.8 6.5 64.6C49.8 309.3 8.2 354 1 284c-2.5-24.4 5.7-60.6 9.8-111.4C13.3 142 17.4 84.3 23 0z" fill="#78BF27"/>
    <g transform="translate(15 117)" fill="#CCD621">
      <ellipse cx="4" cy="121.5" rx="4" ry="2.5"/>
      <ellipse cx="10" cy="141.5" rx="2" ry="2.5"/>
      <ellipse cx="2" cy="90.5" rx="2" ry="2.5"/>
      <ellipse cx="11" cy="64.5" rx="3" ry="2.5"/>
      <ellipse cx="3" cy="173.5" rx="3" ry="2.5"/>
      <ellipse cx="7" cy="33.5" rx="3" ry="2.5"/>
      <ellipse cx="10" cy="2.5" rx="2" ry="2.5"/>
    </g>
  </g>
</svg>
